#!OML:ASF F:\VICON\USERDATA\INSTALL\rory3\rory3.ASF
:FULLY-SPECIFIED
:DEGREES
113
root 0.43529 18.6267 32.2369 5.57963 1.08797 -2.72279
lowerback 12.1703 1.32895 3.61972
upperback 0.174145 2.22237 -0.74846
thorax -6.48241 0.961271 -3.2214
lowerneck -4.48705 -1.00884 -1.43893
upperneck -3.42242 -1.25065 2.00952
head -0.283956 -0.608362 0.835156
rclavicle -3.23522e-014 -1.2921e-014
rhumerus -29.2308 20.7065 -87.2515
rradius 109.095
rwrist -1.43313
rhand -38.294 38.4138
rfingers 7.12502
rthumb -11.3228 8.73943
lclavicle -3.23522e-014 -1.2921e-014
lhumerus -63.3245 -6.16652 90.7629
lradius 117.656
lwrist 35.9143
lhand -33.8284 11.8328
lfingers 7.12502
lthumb -7.01395 41.6966
rfemur 23.6861 7.08106 30.6907
rtibia 10.4998
rfoot 32.1733 -6.31505
rtoes 14.6475
lfemur -42.9502 -4.74211 -16.0776
ltibia 56.9247
lfoot 7.10585 -5.76202
ltoes -12.3065
114
root 0.442677 18.6835 32.7775 5.7596 1.31495 -2.54969
lowerback 11.8339 1.31369 3.39151
upperback 0.0508837 2.15626 -0.816366
thorax -6.4349 0.934863 -3.1435
lowerneck -4.27296 -0.849984 -1.32832
upperneck -3.26588 -1.0556 1.47168
head -0.278481 -0.512786 0.65302
rclavicle -2.08724e-015 -2.10712e-014
rhumerus -30.1934 21.4872 -87.5717
rradius 109.106
rwrist -0.929425
rhand -38.1444 38.6809
rfingers 7.12502
rthumb -11.1785 8.99871
lclavicle -2.08724e-015 -2.10712e-014
lhumerus -63.5164 -5.47983 90.3172
lradius 118.042
lwrist 35.9209
lhand -33.7357 11.5342
lfingers 7.12502
lthumb -6.92446 41.4009
rfemur 24.1601 7.38617 30.8114
rtibia 11.7786
rfoot 32.4477 -6.00322
rtoes 17.6146
lfemur -42.2824 -5.68779 -15.9722
ltibia 51.491
lfoot 7.88479 -5.95626
ltoes -13.7554
115
root 0.444389 18.719 33.2958 5.6772 1.60246 -3.04699
lowerback 12.1334 1.26038 3.79978
upperback -0.000979106 2.1621 -0.700856
thorax -6.64859 0.91987 -3.26546
lowerneck -4.43802 -0.811031 -1.35718
upperneck -2.97369 -1.00518 1.29386
head -0.164569 -0.486812 0.602222
rclavicle 3.29983e-014 -1.74931e-014
rhumerus -30.9228 22.1128 -87.7925
rradius 109.083
rwrist -0.64603
rhand -37.8694 38.1682
rfingers 7.12502
rthumb -10.9133 8.47185
lclavicle 3.29983e-014 -1.74931e-014
lhumerus -63.6152 -4.89012 90.0093
lradius 118.505
lwrist 35.4411
lhand -33.1951 10.1185
lfingers 7.12502
lthumb -6.40258 40.0017
rfemur 24.397 7.60212 31.8031
rtibia 13.8408
rfoot 31.5348 -5.47622
rtoes 20.1895
lfemur -41.3581 -6.40716 -15.1339
ltibia 45.965
lfoot 8.97958 -6.48864
ltoes -15.525
116
root 0.452269 18.7398 33.8097 5.30472 1.9015 -3.59304
lowerback 12.6526 1.12341 4.29813
upperback 0.154859 2.08099 -0.551091
thorax -6.77027 0.864942 -3.3897
lowerneck -4.98363 -0.819955 -1.50181
upperneck -2.74841 -1.00517 1.23098
head -0.00689938 -0.484031 0.604792
rclavicle -1.31695e-014 2.78299e-015
rhumerus -30.9695 23.0711 -87.7832
rradius 108.592
rwrist -0.748638
rhand -37.515 37.8422
rfingers 7.12502
rthumb -10.5714 8.12807
lclavicle -1.31695e-014 2.78299e-015
lhumerus -63.4595 -4.19387 89.7165
lradius 119.006
lwrist 34.5317
lhand -33.3066 9.09944
lfingers 7.12502
lthumb -6.51023 38.9794
rfemur 24.6332 7.74277 32.9012
rtibia 16.5219
rfoot 30.0576 -4.64796
rtoes 20.0138
lfemur -39.9545 -7.15785 -14.3124
ltibia 40.4721
lfoot 9.8596 -6.58418
ltoes -16.3379
117
root 0.46491 18.7508 34.334 4.8577 2.24606 -3.74046
lowerback 13.0385 0.979205 4.48343
upperback 0.330024 1.93279 -0.526852
thorax -6.80812 0.788556 -3.45199
lowerneck -5.42021 -0.809879 -1.47732
upperneck -2.66667 -0.988804 0.975555
head 0.0868602 -0.476037 0.521329
rclavicle -3.73218e-014 4.37326e-015
rhumerus -31.3982 23.8209 -87.9547
rradius 107.905
rwrist -0.748679
rhand -37.4142 37.8334
rfingers 7.12502
rthumb -10.4742 8.11438
lclavicle -3.73218e-014 4.37326e-015
lhumerus -63.174 -3.67761 89.4547
lradius 119.265
lwrist 33.8423
lhand -33.8203 9.24565
lfingers 7.12502
lthumb -7.00611 39.1097
rfemur 24.7545 7.79468 33.5609
rtibia 19.6522
rfoot 28.7512 -4.16143
rtoes 19.285
lfemur -38.2422 -8.1635 -13.9515
ltibia 35.1945
lfoot 10.3261 -5.7967
ltoes -18.2378
